<svg xmlns="http://www.w3.org/2000/svg" width="68" height="67" viewBox="0 0 68 67" fill="none">
  <path d="M29.0496 65.8674H29.5496V65.3674V34.9669V34.4669H29.0496H16.5241C16.5853 29.8814 17.493 26.0573 19.2208 22.972L19.2208 22.972L19.2247 22.9647C20.9887 19.6887 24.2862 17.1869 29.2115 15.5019L29.5496 15.3862V15.0288V2V1.43134L28.9856 1.50411C24.845 2.03839 20.9686 3.30778 17.3601 5.31204C13.8869 7.18269 10.8786 9.58922 8.33838 12.5305C5.7972 15.473 3.79408 18.8803 2.3271 22.7477L2.3244 22.7549L2.32192 22.7621C0.985443 26.6378 0.385568 30.7758 0.517946 35.1718V65.3674V65.8674H1.01795H29.0496ZM66.607 65.8674H67.107V65.3674V34.9669V34.4669H66.607H54.0815C54.1427 29.8814 55.0504 26.0573 56.7782 22.972L56.7782 22.972L56.7821 22.9647C58.5461 19.6887 61.8436 17.1869 66.7689 15.5019L67.107 15.3862V15.0288V2V1.43134L66.543 1.50411C62.4024 2.03839 58.526 3.30778 54.9175 5.31204C51.4443 7.18269 48.436 9.58922 45.8958 12.5305C43.3546 15.473 41.3515 18.8803 39.8845 22.7477L39.8818 22.7549L39.8793 22.7621C38.5428 26.6378 37.943 30.7758 38.0753 35.1718V65.3674V65.8674H38.5753H66.607Z" fill="#F4F1EC" stroke="#F4F1EC"/>
</svg>